HIERARCHY
ROOT root
{
	OFFSET 0.000000 0.000000 0.000000
	CHANNELS 6 Xposition Yposition Zposition Zrotation Yrotation Xrotation
	JOINT lhip
	{
		OFFSET 0.058581 -0.082280 -0.017664
		CHANNELS 3 Zrotation Yrotation Xrotation
		JOINT lknee
		{
			OFFSET 0.043451 -0.386469 0.008037
			CHANNELS 3 Zrotation Yrotation Xrotation
			JOINT lankle
			{
				OFFSET -0.014790 -0.426874 -0.037428
				CHANNELS 3 Zrotation Yrotation Xrotation
				JOINT ltoe
				{
					OFFSET 0.041054 -0.060286 0.122042
					CHANNELS 3 Zrotation Yrotation Xrotation
					End Site
					{
						OFFSET 0.000000 0.000000 0.000000
					}
				}
			}
		}
	}
	JOINT rhip
	{
		OFFSET -0.060310 -0.090513 -0.013543
		CHANNELS 3 Zrotation Yrotation Xrotation
		JOINT rknee
		{
			OFFSET -0.043257 -0.383688 -0.004843
			CHANNELS 3 Zrotation Yrotation Xrotation
			JOINT rankle
			{
				OFFSET 0.019056 -0.420046 -0.034562
				CHANNELS 3 Zrotation Yrotation Xrotation
				JOINT rtoe
				{
					OFFSET -0.034840 -0.062106 0.130323
					CHANNELS 3 Zrotation Yrotation Xrotation
					End Site
					{
						OFFSET 0.000000 0.000000 0.000000
					}
				}
			}
		}
	}
	JOINT lowerback
	{
		OFFSET 0.004439 0.124404 -0.038385
		CHANNELS 3 Zrotation Yrotation Xrotation
		JOINT upperback
		{
			OFFSET 0.004488 0.137956 0.026820
			CHANNELS 3 Zrotation Yrotation Xrotation
			JOINT chest
			{
				OFFSET -0.002265 0.056032 0.002855
				CHANNELS 3 Zrotation Yrotation Xrotation
				JOINT lowerneck
				{
					OFFSET -0.013390 0.211636 -0.033468
					CHANNELS 3 Zrotation Yrotation Xrotation
					JOINT upperneck
					{
						OFFSET 0.010113 0.088937 0.050410
						CHANNELS 3 Zrotation Yrotation Xrotation
						End Site
						{
							OFFSET 0.000000 0.000000 0.000000
						}
					}
				}
				JOINT lclavicle
				{
					OFFSET 0.071702 0.114000 -0.018898
					CHANNELS 3 Zrotation Yrotation Xrotation
					JOINT lshoulder
					{
						OFFSET 0.122921 0.045205 -0.019046
						CHANNELS 3 Zrotation Yrotation Xrotation
						JOINT lelbow
						{
							OFFSET 0.255332 -0.015649 -0.022946
							CHANNELS 3 Zrotation Yrotation Xrotation
							JOINT lwrist
							{
								OFFSET 0.265709 0.012698 -0.007375
								CHANNELS 3 Zrotation Yrotation Xrotation
								End Site
								{
									OFFSET 0.000000 0.000000 0.000000
								}
							}
						}
					}
				}
				JOINT rclavicle
				{
					OFFSET -0.082954 0.112472 -0.023707
					CHANNELS 3 Zrotation Yrotation Xrotation
					JOINT rshoulder
					{
						OFFSET -0.113228 0.046853 -0.008472
						CHANNELS 3 Zrotation Yrotation Xrotation
						JOINT relbow
						{
							OFFSET -0.260127 -0.014369 -0.031269
							CHANNELS 3 Zrotation Yrotation Xrotation
							JOINT rwrist
							{
								OFFSET -0.269108 0.006794 -0.006027
								CHANNELS 3 Zrotation Yrotation Xrotation
								End Site
								{
									OFFSET 0.000000 0.000000 0.000000
								}
							}
						}
					}
				}
			}
		}
	}
}
MOTION
Frames: 10
Frame Time: 0.033333
0.342057 0.178699 0.985845 86.525124 -0.272292 92.332638 6.958634 4.481439 4.466429 -3.609719 -1.634418 -5.860569 -0.567204 8.395485 -3.558848 0.000000 -0.000000 0.000000 -8.536607 -2.037297 -2.834501 2.511375 -1.012790 1.022899 5.312282 -3.597029 -5.376474 0.000000 -0.000000 0.000000 -4.137736 2.615320 -9.890062 2.180562 -0.947221 10.458818 -0.326039 0.756413 -4.204781 4.326096 2.811056 7.125370 5.184869 -3.410491 -1.456351 -27.080479 -1.194076 -0.618257 -55.176414 -5.134764 19.844400 -0.218361 -18.258912 8.372750 -4.095425 -15.610872 7.977465 29.676428 3.030325 5.533653 55.276630 1.028622 15.834214 -8.645844 24.653270 -2.761938 -1.559082 11.477022 -1.175024 
0.342105 0.178727 0.985791 86.538682 -0.270230 92.328378 6.958455 4.470661 4.479640 -3.603482 -1.633478 -5.871450 -0.572236 8.386389 -3.546873 0.000000 -0.000000 0.000000 -8.534433 -2.028311 -2.819385 2.507641 -1.006075 1.014110 5.314643 -3.613614 -5.377922 0.000000 -0.000000 0.000000 -4.121128 2.600434 -9.827880 2.154901 -0.930665 10.343653 -0.308364 0.777870 -4.137058 4.321749 2.793819 7.028571 5.173869 -3.410539 -1.330378 -27.039284 -1.218983 -0.603629 -55.243040 -5.152331 19.787413 -0.212756 -18.259805 8.417883 -4.097225 -15.605226 8.012419 29.611634 3.026921 5.555532 55.370322 1.072110 15.807605 -8.692307 24.656806 -2.736147 -1.568358 11.462823 -1.164747 
0.342040 0.178715 0.985678 86.568474 -0.254513 92.337006 6.974899 4.466935 4.482510 -3.594069 -1.619363 -5.922474 -0.600562 8.343607 -3.506699 0.000000 -0.000000 0.000000 -8.520892 -2.016794 -2.810455 2.507499 -1.006930 0.988208 5.320789 -3.651649 -5.373938 0.000000 -0.000000 0.000000 -4.081064 2.544601 -9.692941 2.077819 -0.899864 10.050995 -0.252843 0.838633 -3.916231 4.326347 2.755670 6.758234 5.167864 -3.428333 -1.060182 -26.887647 -1.293886 -0.564462 -55.439955 -5.215590 19.603477 -0.186120 -18.315962 8.551463 -4.165267 -15.593480 8.125171 29.423751 3.014458 5.629488 55.628278 1.211421 15.726149 -8.802604 24.707387 -2.625297 -1.516296 11.399475 -1.159319 
0.342070 0.178762 0.985572 86.602138 -0.222150 92.387952 6.997883 4.430075 4.454137 -3.600583 -1.629810 -5.983600 -0.590528 8.337510 -3.443212 0.000000 -0.000000 0.000000 -8.474379 -2.003403 -2.844027 2.473990 -0.996156 0.953840 5.362495 -3.703886 -5.337107 0.000000 -0.000000 0.000000 -4.049477 2.514082 -9.650310 2.050708 -0.895231 9.902141 -0.233582 0.860162 -3.814949 4.337069 2.736521 6.512884 5.175665 -3.470495 -0.851055 -26.742683 -1.374228 -0.484310 -55.625978 -5.264953 19.566920 -0.159122 -18.407825 8.633614 -4.218858 -15.543364 8.037537 29.266874 3.071089 5.688729 55.819953 1.240238 15.720210 -8.943427 24.817238 -2.566497 -1.483969 11.391618 -1.221738 
0.342116 0.178792 0.985531 86.603301 -0.206632 92.397257 7.008706 4.427020 4.448064 -3.593811 -1.626465 -5.983296 -0.615884 8.337111 -3.460623 0.000000 -0.000000 0.000000 -8.461459 -2.004672 -2.847022 2.479061 -0.989681 0.942420 5.365924 -3.706707 -5.340269 0.000000 -0.000000 0.000000 -4.023785 2.513898 -9.620317 2.041786 -0.883158 9.838941 -0.236428 0.857858 -3.788417 4.340938 2.699130 6.474582 5.177497 -3.488465 -0.815211 -26.711071 -1.385261 -0.474411 -55.684223 -5.311227 19.559609 -0.145546 -18.347194 8.684873 -4.228851 -15.547968 8.026479 29.208610 3.062152 5.697643 55.878372 1.263280 15.726060 -8.949835 24.827281 -2.541352 -1.486684 11.384032 -1.289782 
0.342075 0.178828 0.985514 86.633411 -0.199628 92.403803 7.011586 4.421673 4.445393 -3.601866 -1.672126 -6.016935 -0.679731 8.386240 -3.444506 0.000000 -0.000000 0.000000 -8.453225 -1.972927 -2.855898 2.488881 -0.942833 0.897907 5.367532 -3.784252 -5.340924 0.000000 -0.000000 0.000000 -4.037958 2.493676 -9.547329 2.026314 -0.889733 9.623869 -0.171376 0.869479 -3.641679 4.303663 2.693263 6.366339 5.200027 -3.517309 -0.754577 -26.597315 -1.385628 -0.587291 -55.958998 -5.753912 19.421335 -0.260243 -17.532957 8.941053 -4.249120 -15.802908 8.182322 29.052292 3.051289 5.625532 56.009396 1.350231 15.757443 -8.854663 24.689081 -2.348040 -1.642311 11.406931 -1.506061 
0.342083 0.178769 0.985482 86.623502 -0.183051 92.422458 7.037324 4.412875 4.442316 -3.628306 -1.672341 -6.027636 -0.651585 8.391301 -3.446809 0.000000 -0.000000 0.000000 -8.425944 -1.958481 -2.878861 2.483751 -0.935276 0.892036 5.343039 -3.790579 -5.335138 0.000000 -0.000000 0.000000 -4.041340 2.494343 -9.503499 2.013957 -0.870068 9.530066 -0.150028 0.862612 -3.603911 4.314675 2.674402 6.270832 5.200570 -3.507569 -0.654262 -26.571072 -1.356351 -0.627630 -55.979738 -5.827707 19.425330 -0.288048 -17.424792 8.945454 -4.350183 -15.973442 8.114361 29.023345 3.048318 5.624414 56.039818 1.419514 15.758495 -8.796550 24.359363 -2.333732 -1.267397 11.396282 -1.769748 
0.342216 0.178693 0.985462 86.606736 -0.165691 92.414735 7.044743 4.434175 4.467802 -3.613397 -1.682464 -6.039249 -0.625333 8.393455 -3.469457 0.000000 -0.000000 0.000000 -8.406945 -1.973704 -2.875949 2.489805 -0.876056 0.893027 5.341913 -3.805175 -5.333602 0.000000 -0.000000 0.000000 -4.060361 2.488749 -9.461444 2.057524 -0.869970 9.356615 -0.125448 0.794347 -3.437834 4.282410 2.663140 6.136127 5.130150 -3.423565 -0.523981 -26.637078 -1.175536 -0.735273 -55.925669 -5.943031 19.351741 -0.330500 -17.345885 9.164972 -4.405174 -15.925404 8.075168 29.143764 2.568192 5.302012 55.789322 1.653900 15.660195 -8.624660 24.357473 -1.729816 -0.725829 11.223571 -1.624505 
0.342335 0.178658 0.985465 86.592837 -0.143874 92.406766 7.073376 4.430471 4.473401 -3.624291 -1.680930 -6.014533 -0.626623 8.402853 -3.472276 0.000000 -0.000000 0.000000 -8.380431 -1.973184 -2.851493 2.486210 -0.832625 0.869526 5.346118 -3.818710 -5.333872 0.000000 -0.000000 0.000000 -4.026658 2.488849 -9.399373 2.033207 -0.853426 9.230429 -0.118674 0.798464 -3.367519 4.275697 2.638026 6.097878 5.094557 -3.402971 -0.461996 -26.642646 -1.150466 -0.726615 -55.889463 -5.951268 19.370556 -0.317321 -17.378880 9.246463 -4.406193 -15.899858 7.935666 29.076791 2.527756 5.250503 55.854941 1.645773 15.700828 -8.542266 24.255002 -1.607984 -0.201538 10.930953 -2.034262 
0.342353 0.178607 0.985581 86.570789 -0.144220 92.447420 7.036847 4.424134 4.461905 -3.596030 -1.657023 -6.033813 -0.655625 8.402959 -3.489328 0.000000 -0.000000 0.000000 -8.377754 -1.910799 -2.888995 2.472494 -0.872193 0.848754 5.351963 -3.824175 -5.322319 0.000000 -0.000000 0.000000 -4.008192 2.500907 -9.488581 1.979568 -0.825087 9.391095 -0.149775 0.856910 -3.503912 4.358178 2.698760 6.098028 5.116289 -3.512262 -0.413786 -26.524105 -1.325649 -0.627361 -55.949667 -5.864381 19.376486 -0.224703 -17.433075 9.014182 -4.463057 -15.929528 8.097774 28.927202 3.031433 5.584651 56.131259 1.452381 15.771047 -8.865009 24.297122 -2.219403 -0.694317 11.198014 -2.049378 
